<mxfile host="app.diagrams.net" modified="2023-11-05T10:48:58.303Z" agent="Mozilla/5.0 (Windows NT 10.0; Win64; x64) AppleWebKit/537.36 (KHTML, like Gecko) Chrome/118.0.0.0 Safari/537.36" etag="N2PFKM4YOwSTl6UOY5sI" version="22.0.8" type="github">
  <diagram id="C5RBs43oDa-KdzZeNtuy" name="Page-1">
    <mxGraphModel dx="1723" dy="842" grid="1" gridSize="10" guides="1" tooltips="1" connect="1" arrows="1" fold="1" page="1" pageScale="1" pageWidth="827" pageHeight="1169" background="none" math="0" shadow="0">
      <root>
        <mxCell id="WIyWlLk6GJQsqaUBKTNV-0" />
        <mxCell id="WIyWlLk6GJQsqaUBKTNV-1" parent="WIyWlLk6GJQsqaUBKTNV-0" />
        <mxCell id="uBicAtSKVxRK-nKAeODd-2" value="" style="edgeStyle=orthogonalEdgeStyle;rounded=0;orthogonalLoop=1;jettySize=auto;html=1;entryX=0.5;entryY=0;entryDx=0;entryDy=0;labelBackgroundColor=none;strokeColor=#788AA3;fontColor=default;" edge="1" parent="WIyWlLk6GJQsqaUBKTNV-1" source="WIyWlLk6GJQsqaUBKTNV-3" target="uBicAtSKVxRK-nKAeODd-3">
          <mxGeometry relative="1" as="geometry">
            <mxPoint x="337" y="435" as="targetPoint" />
          </mxGeometry>
        </mxCell>
        <mxCell id="WIyWlLk6GJQsqaUBKTNV-3" value="&lt;b&gt;Find goal position&lt;/b&gt;&amp;nbsp;&lt;br&gt;closest token seen" style="rounded=1;whiteSpace=wrap;html=1;fontSize=12;glass=0;strokeWidth=1;shadow=0;labelBackgroundColor=none;fillColor=#B2C9AB;strokeColor=#788AA3;fontColor=#46495D;" parent="WIyWlLk6GJQsqaUBKTNV-1" vertex="1">
          <mxGeometry x="277" y="345" width="120" height="40" as="geometry" />
        </mxCell>
        <mxCell id="uBicAtSKVxRK-nKAeODd-0" value="&lt;b&gt;Start&lt;/b&gt;&lt;br&gt;no grouped tokens" style="ellipse;whiteSpace=wrap;html=1;labelBackgroundColor=none;fillColor=#B2C9AB;strokeColor=#788AA3;fontColor=#46495D;" vertex="1" parent="WIyWlLk6GJQsqaUBKTNV-1">
          <mxGeometry x="277" y="235" width="120" height="70" as="geometry" />
        </mxCell>
        <mxCell id="uBicAtSKVxRK-nKAeODd-1" value="" style="endArrow=classic;html=1;rounded=0;labelBackgroundColor=none;strokeColor=#788AA3;fontColor=default;" edge="1" parent="WIyWlLk6GJQsqaUBKTNV-1">
          <mxGeometry width="50" height="50" relative="1" as="geometry">
            <mxPoint x="336.5" y="305" as="sourcePoint" />
            <mxPoint x="336.5" y="345" as="targetPoint" />
          </mxGeometry>
        </mxCell>
        <mxCell id="uBicAtSKVxRK-nKAeODd-5" value="" style="edgeStyle=orthogonalEdgeStyle;rounded=0;orthogonalLoop=1;jettySize=auto;html=1;labelBackgroundColor=none;strokeColor=#788AA3;fontColor=default;" edge="1" parent="WIyWlLk6GJQsqaUBKTNV-1" source="uBicAtSKVxRK-nKAeODd-3">
          <mxGeometry relative="1" as="geometry">
            <mxPoint x="337" y="525" as="targetPoint" />
          </mxGeometry>
        </mxCell>
        <mxCell id="uBicAtSKVxRK-nKAeODd-3" value="&lt;b&gt;Exploration&lt;/b&gt;&lt;br&gt;list each token in the arena" style="rounded=1;whiteSpace=wrap;html=1;labelBackgroundColor=none;fillColor=#B2C9AB;strokeColor=#788AA3;fontColor=#46495D;" vertex="1" parent="WIyWlLk6GJQsqaUBKTNV-1">
          <mxGeometry x="277" y="425" width="120" height="60" as="geometry" />
        </mxCell>
        <mxCell id="uBicAtSKVxRK-nKAeODd-11" value="" style="edgeStyle=orthogonalEdgeStyle;rounded=0;orthogonalLoop=1;jettySize=auto;html=1;labelBackgroundColor=none;strokeColor=#788AA3;fontColor=default;" edge="1" parent="WIyWlLk6GJQsqaUBKTNV-1" source="uBicAtSKVxRK-nKAeODd-7">
          <mxGeometry relative="1" as="geometry">
            <mxPoint x="471" y="580" as="targetPoint" />
          </mxGeometry>
        </mxCell>
        <mxCell id="uBicAtSKVxRK-nKAeODd-16" value="" style="edgeStyle=orthogonalEdgeStyle;rounded=0;orthogonalLoop=1;jettySize=auto;html=1;labelBackgroundColor=none;strokeColor=#788AA3;fontColor=default;" edge="1" parent="WIyWlLk6GJQsqaUBKTNV-1" source="uBicAtSKVxRK-nKAeODd-7">
          <mxGeometry relative="1" as="geometry">
            <mxPoint x="336" y="675" as="targetPoint" />
          </mxGeometry>
        </mxCell>
        <mxCell id="uBicAtSKVxRK-nKAeODd-7" value="every token was found" style="rhombus;whiteSpace=wrap;html=1;labelBackgroundColor=none;fillColor=#B2C9AB;strokeColor=#788AA3;fontColor=#46495D;" vertex="1" parent="WIyWlLk6GJQsqaUBKTNV-1">
          <mxGeometry x="278.5" y="525" width="115" height="110" as="geometry" />
        </mxCell>
        <mxCell id="uBicAtSKVxRK-nKAeODd-14" value="True" style="text;html=1;strokeColor=none;fillColor=none;align=center;verticalAlign=middle;whiteSpace=wrap;rounded=0;labelBackgroundColor=none;fontColor=#46495D;" vertex="1" parent="WIyWlLk6GJQsqaUBKTNV-1">
          <mxGeometry x="396" y="550" width="60" height="30" as="geometry" />
        </mxCell>
        <mxCell id="uBicAtSKVxRK-nKAeODd-18" value="False" style="text;html=1;strokeColor=none;fillColor=none;align=center;verticalAlign=middle;whiteSpace=wrap;rounded=0;labelBackgroundColor=none;fontColor=#46495D;" vertex="1" parent="WIyWlLk6GJQsqaUBKTNV-1">
          <mxGeometry x="326" y="635" width="60" height="30" as="geometry" />
        </mxCell>
        <mxCell id="uBicAtSKVxRK-nKAeODd-21" value="" style="edgeStyle=orthogonalEdgeStyle;rounded=0;orthogonalLoop=1;jettySize=auto;html=1;labelBackgroundColor=none;strokeColor=#788AA3;fontColor=default;" edge="1" parent="WIyWlLk6GJQsqaUBKTNV-1" source="uBicAtSKVxRK-nKAeODd-19" target="uBicAtSKVxRK-nKAeODd-20">
          <mxGeometry relative="1" as="geometry" />
        </mxCell>
        <mxCell id="uBicAtSKVxRK-nKAeODd-19" value="&lt;b&gt;Reach &lt;/b&gt;the &lt;b&gt;first token &lt;/b&gt;that is not in the goal position" style="rounded=1;whiteSpace=wrap;html=1;labelBackgroundColor=none;fillColor=#B2C9AB;strokeColor=#788AA3;fontColor=#46495D;" vertex="1" parent="WIyWlLk6GJQsqaUBKTNV-1">
          <mxGeometry x="276" y="675" width="120" height="60" as="geometry" />
        </mxCell>
        <mxCell id="uBicAtSKVxRK-nKAeODd-23" value="" style="edgeStyle=orthogonalEdgeStyle;rounded=0;orthogonalLoop=1;jettySize=auto;html=1;labelBackgroundColor=none;strokeColor=#788AA3;fontColor=default;" edge="1" parent="WIyWlLk6GJQsqaUBKTNV-1" source="uBicAtSKVxRK-nKAeODd-20" target="uBicAtSKVxRK-nKAeODd-22">
          <mxGeometry relative="1" as="geometry" />
        </mxCell>
        <mxCell id="uBicAtSKVxRK-nKAeODd-20" value="&lt;b&gt;Grab it&lt;/b&gt;" style="rounded=1;whiteSpace=wrap;html=1;labelBackgroundColor=none;fillColor=#B2C9AB;strokeColor=#788AA3;fontColor=#46495D;" vertex="1" parent="WIyWlLk6GJQsqaUBKTNV-1">
          <mxGeometry x="276" y="775" width="120" height="60" as="geometry" />
        </mxCell>
        <mxCell id="uBicAtSKVxRK-nKAeODd-22" value="Bring it to the &lt;b&gt;goal position&lt;/b&gt;" style="rounded=1;whiteSpace=wrap;html=1;labelBackgroundColor=none;fillColor=#B2C9AB;strokeColor=#788AA3;fontColor=#46495D;" vertex="1" parent="WIyWlLk6GJQsqaUBKTNV-1">
          <mxGeometry x="276" y="875" width="120" height="60" as="geometry" />
        </mxCell>
        <mxCell id="uBicAtSKVxRK-nKAeODd-27" value="" style="endArrow=classic;html=1;rounded=0;labelBackgroundColor=none;strokeColor=#788AA3;fontColor=default;" edge="1" parent="WIyWlLk6GJQsqaUBKTNV-1">
          <mxGeometry width="50" height="50" relative="1" as="geometry">
            <mxPoint x="237" y="505" as="sourcePoint" />
            <mxPoint x="337" y="505" as="targetPoint" />
          </mxGeometry>
        </mxCell>
        <mxCell id="uBicAtSKVxRK-nKAeODd-28" value="" style="endArrow=none;html=1;rounded=0;labelBackgroundColor=none;strokeColor=#788AA3;fontColor=default;" edge="1" parent="WIyWlLk6GJQsqaUBKTNV-1">
          <mxGeometry width="50" height="50" relative="1" as="geometry">
            <mxPoint x="237" y="905" as="sourcePoint" />
            <mxPoint x="277" y="904.5" as="targetPoint" />
          </mxGeometry>
        </mxCell>
        <mxCell id="uBicAtSKVxRK-nKAeODd-29" value="" style="endArrow=none;html=1;rounded=0;labelBackgroundColor=none;strokeColor=#788AA3;fontColor=default;" edge="1" parent="WIyWlLk6GJQsqaUBKTNV-1">
          <mxGeometry width="50" height="50" relative="1" as="geometry">
            <mxPoint x="237" y="905" as="sourcePoint" />
            <mxPoint x="237" y="505" as="targetPoint" />
            <Array as="points">
              <mxPoint x="237" y="895" />
              <mxPoint x="237" y="875" />
            </Array>
          </mxGeometry>
        </mxCell>
        <mxCell id="uBicAtSKVxRK-nKAeODd-30" value="&lt;b&gt;End&lt;/b&gt;&lt;br&gt;each token was grouped" style="ellipse;whiteSpace=wrap;html=1;strokeColor=#788AA3;fontColor=#46495D;fillColor=#B2C9AB;" vertex="1" parent="WIyWlLk6GJQsqaUBKTNV-1">
          <mxGeometry x="470" y="540" width="120" height="75" as="geometry" />
        </mxCell>
      </root>
    </mxGraphModel>
  </diagram>
</mxfile>
